<?xml version="1.0" encoding="UTF-8" standalone="no"?>
<svg width="800px" height="800px" viewBox="0 0 800 800" version="1.1" xmlns="http://www.w3.org/2000/svg" style="background: #ffffff;">
  <rect
     id="bg"
     fill="#ffffff"
     x="0"
     y="0"
     width="800"
     height="800" />
  <rect
     id="link-w"
     fill="#3cc391"
     x="0"
     y="0"
     width="256"
     height="256" />
  <rect
     id="heart-w"
     fill="#3cc391"
     x="272"
     y="0"
     width="256"
     height="256" />
  <rect
     id="shop-w"
     fill="#3cc391"
     x="544"
     y="0"
     width="256"
     height="256" />
  <path
     id="link"
     fill="#ffffff"
     d="m 172,144 h -8 a 4,4 0 0 0 -4,4 v 28 H 80 V 96 h 36 a 4,4 0 0 0 4,-4 v -8 a 4,4 0 0 0 -4,-4 H 76 A 12,12 0 0 0 64,92 v 88 a 12,12 0 0 0 12,12 h 88 a 12,12 0 0 0 12,-12 v -32 a 4,4 0 0 0 -4,-4 z m 14,-80 h -32 c -5.3425,0 -8.0125,6.4775 -4.25,10.25 l 8.9325,8.9325 -60.9325,60.91 a 6,6 0 0 0 0,8.5 l 5.6675,5.6575 a 6,6 0 0 0 8.5,0 l 60.9025,-60.92 8.93,8.92 C 185.5,110 192,107.375 192,102 V 70 a 6,6 0 0 0 -6,-6 z" />
  <path
     id="heart"
     fill="#ffffff"
     d="m 458.94388,72.752179 c -15.65685,-13.34261 -38.94215,-10.94265 -53.31332,3.885649 l -5.62847,5.79989 -5.62846,-5.79989 C 380.03103,61.809529 356.71717,59.409569 341.06032,72.752179 323.11779,88.066188 322.17495,115.5514 338.2318,132.1511 l 55.2847,57.08466 c 3.57136,3.68565 9.37126,3.68565 12.94262,0 l 55.28471,-57.08466 c 16.08542,-16.5997 15.14258,-44.084912 -2.79995,-59.398921 z" />
  <path
     id="shop"
     fill="#ffffff"
     d="m 732.03002,139.32975 11.81825,-52.000001 c 0.85325,-3.7545 -2.0005,-7.32975 -5.85075,-7.32975 l -98.1955,0 -2.2915,-11.2025 c -0.571,-2.79225 -3.028,-4.7975 -5.87825,-4.7975 l -25.63225,0 c -3.31375,0 -6,2.68625 -6,6 l 0,4 c 0,3.31375 2.68625,6 6,6 l 17.47075,0 17.562,85.858751 c -4.2015,2.41625 -7.03275,6.94675 -7.03275,12.14125 0,7.732 6.268,14 14,14 7.732,0 14,-6.268 14,-14 0,-3.9185 -1.61175,-7.45875 -4.206,-10 l 52.41175,0 c -2.594,2.54125 -4.20575,6.0815 -4.20575,10 0,7.732 6.268,14 14,14 7.732,0 14,-6.268 14,-14 0,-5.543 -3.222,-10.333 -7.89475,-12.60125 l 1.37925,-6.069 C 728.33777,155.57525 725.48402,152 721.63377,152 l -67.1045,0 -1.63625,-8 73.28625,0 c 2.8015,0 5.23,-1.9385 5.85075,-4.67025 z" />
  <g
     transform="translate(-30,30)"
     id="g155">
    <circle
       id="badge-w"
       fill="#c86414"
       cx="772"
       cy="28"
       r="33" />
    <text
       id="badge"
       fill="#ffffff"
       text-anchor="middle"
       x="771.14355"
       y="44.447754"
       style="font-size:48px;font-family:Arial">5</text>
  </g>
</svg>
